<svg aria-hidden="true" style="position: absolute; width: 0; height: 0; overflow: hidden;" version="1.1"
     xmlns="http://www.w3.org/2000/svg" xmlns:xlink="http://www.w3.org/1999/xlink">
    <defs>
        <symbol id="icon-icon-git" viewBox="0 0 32 32">
            <path d="M16.001 2.667c-7.367 0-13.333 5.967-13.333 13.333 0 5.9 3.817 10.883 9.117 12.65 0.667 0.117 0.917-0.283 0.917-0.633 0-0.317-0.017-1.367-0.017-2.483-3.35 0.617-4.217-0.817-4.483-1.567-0.15-0.383-0.8-1.567-1.367-1.883-0.467-0.25-1.133-0.867-0.017-0.883 1.050-0.017 1.8 0.967 2.050 1.367 1.2 2.017 3.117 1.45 3.883 1.1 0.117-0.867 0.467-1.45 0.85-1.783-2.967-0.333-6.067-1.483-6.067-6.583 0-1.45 0.517-2.65 1.367-3.583-0.133-0.333-0.6-1.7 0.133-3.533 0 0 1.117-0.35 3.667 1.367 1.067-0.3 2.2-0.45 3.333-0.45s2.267 0.15 3.333 0.45c2.55-1.733 3.667-1.367 3.667-1.367 0.733 1.833 0.267 3.2 0.133 3.533 0.85 0.933 1.367 2.117 1.367 3.583 0 5.117-3.117 6.25-6.083 6.583 0.483 0.417 0.9 1.217 0.9 2.467 0 1.783-0.017 3.217-0.017 3.667 0 0.35 0.25 0.767 0.917 0.633 5.427-1.832 9.082-6.922 9.083-12.65 0-7.367-5.967-13.333-13.333-13.333z"></path>
        </symbol>
        <symbol id="icon-icon-linkedin" viewBox="0 0 32 32">
            <path d="M9.254 6.667c-0.001 1.086-0.659 2.063-1.666 2.47s-2.159 0.164-2.915-0.615c-0.756-0.779-0.964-1.939-0.526-2.933s1.435-1.622 2.52-1.59c1.441 0.043 2.587 1.225 2.587 2.667zM9.334 11.307h-5.333v16.693h5.333v-16.693zM17.761 11.307h-5.307v16.693h5.253v-8.76c0-4.88 6.36-5.333 6.36 0v8.76h5.267v-10.573c0-8.227-9.413-7.92-11.627-3.88l0.053-2.24z"></path>
        </symbol>
        <symbol id="icon-icon-menu" viewBox="0 0 32 32">
            <path d="M4 5.333h24v2.667h-24v-2.667zM4 14.667h24v2.667h-24v-2.667zM4 24h24v2.667h-24v-2.667z"></path>
        </symbol>
        <symbol id="icon-close" viewBox="0 0 24 24">
            <path stroke-linejoin="miter" stroke-linecap="round" stroke-miterlimit="4" stroke-width="2" d="M9 6l6 6 6-6M9 18l6-6 6 6"></path>
        </symbol>
    </defs>
</svg>
