<svg aria-hidden="true" style="position: absolute; width: 0; height: 0; overflow: hidden;" version="1.1"
     xmlns="http://www.w3.org/2000/svg" xmlns:xlink="http://www.w3.org/1999/xlink">
    <defs>
        <symbol id="icon-git" viewBox="0 0 32 32">
            <path d="M16.001 2.667c-7.367 0-13.333 5.967-13.333 13.333 0 5.9 3.817 10.883 9.117 12.65 0.667 0.117 0.917-0.283 0.917-0.633 0-0.317-0.017-1.367-0.017-2.483-3.35 0.617-4.217-0.817-4.483-1.567-0.15-0.383-0.8-1.567-1.367-1.883-0.467-0.25-1.133-0.867-0.017-0.883 1.050-0.017 1.8 0.967 2.050 1.367 1.2 2.017 3.117 1.45 3.883 1.1 0.117-0.867 0.467-1.45 0.85-1.783-2.967-0.333-6.067-1.483-6.067-6.583 0-1.45 0.517-2.65 1.367-3.583-0.133-0.333-0.6-1.7 0.133-3.533 0 0 1.117-0.35 3.667 1.367 1.067-0.3 2.2-0.45 3.333-0.45s2.267 0.15 3.333 0.45c2.55-1.733 3.667-1.367 3.667-1.367 0.733 1.833 0.267 3.2 0.133 3.533 0.85 0.933 1.367 2.117 1.367 3.583 0 5.117-3.117 6.25-6.083 6.583 0.483 0.417 0.9 1.217 0.9 2.467 0 1.783-0.017 3.217-0.017 3.667 0 0.35 0.25 0.767 0.917 0.633 5.427-1.832 9.082-6.922 9.083-12.65 0-7.367-5.967-13.333-13.333-13.333z"></path>
        </symbol>
        <symbol id="icon-linkedin" viewBox="0 0 32 32">
            <path d="M9.254 6.667c-0.001 1.086-0.659 2.063-1.666 2.47s-2.159 0.164-2.915-0.615c-0.756-0.779-0.964-1.939-0.526-2.933s1.435-1.622 2.52-1.59c1.441 0.043 2.587 1.225 2.587 2.667zM9.334 11.307h-5.333v16.693h5.333v-16.693zM17.761 11.307h-5.307v16.693h5.253v-8.76c0-4.88 6.36-5.333 6.36 0v8.76h5.267v-10.573c0-8.227-9.413-7.92-11.627-3.88l0.053-2.24z"></path>
        </symbol>
        <symbol id="icon-menu" viewBox="0 0 32 32">
            <path d="M4 5.333h24v2.667h-24v-2.667zM4 14.667h24v2.667h-24v-2.667zM4 24h24v2.667h-24v-2.667z"></path>
        </symbol>
        <symbol id="icon-close" viewBox="0 0 24 24">
            <path stroke-linejoin="miter" stroke-linecap="round" stroke-miterlimit="4" stroke-width="2" d="M9 6l6 6 6-6M9 18l6-6 6 6"></path>
        </symbol>
        <symbol id="icon-profession" viewBox="0 0 32 32">
            <path d="M4.48 4.48h23.040c0.339 0 0.665 0.135 0.905 0.375s0.375 0.566 0.375 0.905v20.48c0 0.339-0.135 0.665-0.375 0.905s-0.566 0.375-0.905 0.375h-23.040c-0.339 0-0.665-0.135-0.905-0.375s-0.375-0.566-0.375-0.905v-20.48c0-0.339 0.135-0.665 0.375-0.905s0.566-0.375 0.905-0.375zM16 19.84v2.56h7.68v-2.56h-7.68zM11.41 16l-3.62 3.62 1.81 1.811 5.431-5.431-5.431-5.431-1.81 1.811 3.62 3.62z"></path>
        </symbol>
        <symbol id="icon-hobbies" viewBox="0 0 32 32">
            <path d="M22.4 5.76c2.037 0 3.99 0.809 5.431 2.249s2.249 3.394 2.249 5.431v5.12c0 2.037-0.809 3.99-2.249 5.431s-3.394 2.249-5.431 2.249h-12.8c-2.037 0-3.99-0.809-5.431-2.249s-2.249-3.394-2.249-5.431v-5.12c0-2.037 0.809-3.99 2.249-5.431s3.394-2.249 5.431-2.249h12.8zM13.44 12.16h-2.56v2.56h-2.56v2.56h2.559l0.001 2.56h2.56l-0.001-2.56h2.561v-2.56h-2.56v-2.56zM23.68 17.28h-2.56v2.56h2.56v-2.56zM21.12 12.16h-2.56v2.56h2.56v-2.56z"></path>
        </symbol>
        <symbol id="icon-personal" viewBox="0 0 32 32">
            <path d="M7.040 26.24h17.92v2.56h-17.92v-2.56zM16 23.68c-2.716 0-5.32-1.079-7.241-2.999s-2.999-4.525-2.999-7.241c0-2.716 1.079-5.32 2.999-7.241s4.525-2.999 7.241-2.999c2.716 0 5.32 1.079 7.241 2.999s2.999 4.525 2.999 7.241c0 2.716-1.079 5.32-2.999 7.241s-4.525 2.999-7.241 2.999z"></path>
        </symbol>
        <symbol id="icon-message" viewBox="0 0 30 32">
            <path d="M3.765 4.706h22.588c0.333 0 0.652 0.132 0.887 0.368s0.368 0.555 0.368 0.887v20.078c0 0.333-0.132 0.652-0.368 0.887s-0.555 0.368-0.887 0.368h-22.588c-0.333 0-0.652-0.132-0.887-0.368s-0.368-0.555-0.368-0.887v-20.078c0-0.333 0.132-0.652 0.368-0.887s0.555-0.368 0.887-0.368v0zM15.134 15.602l-8.046-6.833-1.625 1.912 9.688 8.226 9.514-8.232-1.641-1.899-7.888 6.825z"></path>
        </symbol>
        <symbol id="icon-phone" viewBox="0 0 30 32">
            <path d="M26.353 21.547v4.437c0 0.318-0.12 0.624-0.337 0.856s-0.513 0.374-0.83 0.396c-0.548 0.038-0.996 0.058-1.343 0.058-11.090 0-20.078-8.989-20.078-20.078 0-0.346 0.019-0.794 0.058-1.343 0.022-0.317 0.164-0.614 0.396-0.83s0.538-0.337 0.856-0.337h4.437c0.156-0 0.306 0.058 0.421 0.162s0.188 0.248 0.204 0.403c0.029 0.289 0.055 0.518 0.080 0.693 0.249 1.74 0.76 3.433 1.516 5.021 0.119 0.251 0.041 0.551-0.184 0.712l-2.708 1.935c1.656 3.858 4.73 6.933 8.589 8.589l1.933-2.703c0.079-0.11 0.194-0.19 0.326-0.224s0.271-0.021 0.393 0.037c1.587 0.754 3.28 1.264 5.020 1.512 0.174 0.025 0.404 0.053 0.69 0.080 0.155 0.016 0.298 0.088 0.402 0.204s0.162 0.265 0.162 0.421h-0.001z"></path>
        </symbol>
        <symbol id="icon-arrow" viewBox="0 0 30 32">
            <path d="M15.059 21.019l-7.529-7.529h15.059l-7.529 7.529z"></path>
        </symbol>
        <symbol id="icon-folder" viewBox="0 0 30 32">
            <path d="M27.608 10.98v15.059c0 0.693-0.562 1.255-1.255 1.255h-22.588c-0.693 0-1.255-0.562-1.255-1.255v-16.314h23.843c0.693 0 1.255 0.562 1.255 1.255zM15.579 7.216h-13.069v-1.255c0-0.693 0.562-1.255 1.255-1.255h9.304l2.51 2.51z"></path>
        </symbol>
        <symbol id="icon-arrow-s" viewBox="0 0 30 32">
            <path d="M15.062 17.467l6.211-6.211 1.775 1.775-7.986 7.986-7.986-7.986 1.775-1.775 6.211 6.211z"></path>
        </symbol>
        <symbol id="icon-file" viewBox="0 0 30 32">
            <path d="M3.765 4.706h22.588c0.693 0 1.255 0.562 1.255 1.255v20.078c0 0.693-0.562 1.255-1.255 1.255h-22.588c-0.693 0-1.255-0.562-1.255-1.255v-20.078c0-0.693 0.562-1.255 1.255-1.255zM8.784 20.392v-5.020l2.51 2.51 2.51-2.51v5.020h2.51v-8.784h-2.51l-2.51 2.51-2.51-2.51h-2.51v8.784h2.51zM22.588 16.627v-5.020h-2.51v5.020h-2.51l3.765 3.765 3.765-3.765h-2.51z"></path>
        </symbol>
    </defs>
</svg>
